<svg width="512" height="512" viewBox="0 0 512 512" fill="none" xmlns="http://www.w3.org/2000/svg">
<g clip-path="url(#clip0_1_2)">
<path d="M333.852 387.982C344.57 379.484 356.131 371.839 365.806 362.286C379.916 348.354 390.569 331.689 397.901 313.098C398.066 312.681 397.874 312.123 397.827 311.197C352.756 311.197 307.712 311.197 262.335 311.197C262.335 277.045 262.335 243.327 262.335 209.304C344.352 209.304 426.405 209.304 508.692 209.304C509.881 214.696 511.085 220.157 512.644 225.309C513 246.021 513 267.042 512.646 288.211C511.202 293.723 509.953 299.059 509.05 304.453C505.519 325.53 498.859 345.657 489.901 364.956C481.111 383.894 470.546 401.889 456.722 417.659C447.129 428.602 436.987 439.073 426.86 449.533C424.062 452.423 420.441 454.516 417.024 456.679C406.46 447.847 396.058 439.326 385.682 430.772C368.396 416.52 351.128 402.246 333.852 387.982Z" fill="#518EF8"/>
<path d="M288 2.49999L290.759 2.90781C321.308 6.16872 350.024 15.6183 376.833 30.2035C390.94 37.8785 403.819 47.8145 417.238 56.7498C418.559 57.6293 419.785 58.6513 421.464 59.9151C415.144 65.1076 409.131 70.0624 403.102 74.9967C394.743 81.8378 386.372 88.6647 378.004 95.4955C367.988 103.672 357.974 111.851 347.95 120.018C345.541 121.98 342.762 123.609 340.756 125.916C338.374 128.655 336.352 127.942 333.879 126.441C319.686 117.829 304.38 111.973 288.154 108.66C281.759 107.354 275.22 106.486 268.707 106.1C261.37 105.665 253.984 105.851 246.626 106.029C230.261 106.426 214.754 110.67 199.645 116.721C179.871 124.64 162.629 136.451 147.985 151.712C132.576 167.769 120.691 186.247 113.274 207.544C97.0778 194.565 81.4235 181.632 65.6853 168.801C53.5646 158.92 41.3385 149.167 29.1186 139.051C30.4292 136.334 31.7961 133.932 33.1292 131.511C48.6259 103.373 69.2442 79.4017 93.7791 58.9274C111.846 43.8504 131.774 31.469 153.495 22.1195C175.729 12.5491 198.679 5.6766 222.794 2.91849L226 2.49999C247 2.5 266.5 2 288 2.49999Z" fill="#F14336"/>
<path d="M333.498 387.998C351.128 402.246 368.396 416.52 385.682 430.772C396.058 439.326 406.46 447.847 416.855 456.988C416.517 457.955 416.217 458.372 415.827 458.673C395.963 473.968 374.634 486.764 351.212 495.821C331.918 503.282 312.047 508.651 291.438 511.084C290.562 511.187 289.81 512.337 289 513C267.979 513 246.958 513 225.584 512.589C224.392 511.79 223.588 511.198 222.708 511.048C215.446 509.805 208.088 509.011 200.914 507.39C176.163 501.797 152.65 492.953 130.576 480.288C113.556 470.523 97.4719 459.466 83.4355 445.763C73.7418 436.3 64.0376 426.639 55.8143 415.933C46.6992 404.065 39.264 390.908 31.4157 378.176C43.9563 368.069 56.1603 358.076 68.4054 348.134C83.8659 335.581 99.3598 323.069 114.839 310.54C119.504 319.545 123.813 328.757 128.916 337.507C137.2 351.715 147.941 363.969 160.813 374.222C176.608 386.804 193.854 396.966 213.515 402.04C224.404 404.851 235.64 406.662 246.833 407.888C275.662 411.044 302.509 403.851 328.08 390.962C329.821 390.084 331.459 389.002 333.498 387.998Z" fill="#28B446"/>
<path d="M114.868 310.186C99.3598 323.069 83.8659 335.581 68.4054 348.134C56.1603 358.076 43.9563 368.069 31.0932 377.978C16.3966 350.45 6.1902 321.773 2.91661 290.887C2.84358 290.198 1.66361 289.626 1 289C0.999999 267.979 0.999999 246.958 1.33511 225.809C2.15974 223.021 2.55534 220.338 3.15505 217.703C5.73904 206.346 7.46995 194.69 11.2267 183.731C16.3925 168.661 23.1078 154.123 29.1593 139.358C41.3385 149.167 53.5646 158.92 65.6853 168.801C81.4235 181.632 97.0778 194.565 112.962 207.734C111.102 217.317 108.303 226.532 107.196 235.945C105.982 246.261 105.416 256.835 106.245 267.161C107.162 278.573 109.891 289.849 112.036 301.146C112.6 304.115 113.923 306.94 114.868 310.186Z" fill="#FBBB00"/>
</g>
<defs>
<clipPath id="clip0_1_2">
<rect width="512" height="512" fill="white"/>
</clipPath>
</defs>
</svg>
