<svg width="512" height="512" viewBox="0 0 512 512" fill="none" xmlns="http://www.w3.org/2000/svg">
<g clip-path="url(#clip0_1_11)">
<path d="M1 480C1 331.643 1 183.285 1.284 34.7895C2.13202 33.8901 2.90324 33.2084 3.22925 32.3562C8.86658 17.6214 18.7058 7.3451 34.1441 2.87755C34.5745 2.75301 34.7211 1.64788 35 1C183.024 1 331.048 1 479.211 1.28398C480.109 2.13174 480.79 2.91056 481.643 3.2272C495.765 8.47305 505.523 18.0389 510.737 32.2342C511.017 32.9969 512.224 33.4192 513 34C513 182.357 513 330.715 512.716 479.211C511.868 480.109 511.089 480.79 510.773 481.642C505.53 495.768 495.958 505.521 481.765 510.738C481.002 511.018 480.58 512.225 480 513C331.976 513 183.952 513 35.7928 512.704C35.1967 511.962 34.8088 511.262 34.2637 511.104C19.0789 506.698 9.07039 496.857 3.53164 482.183C3.18606 481.267 1.86644 480.719 1 480ZM369.362 324.87C375.805 318.847 382.846 313.343 388.588 306.713C414.538 276.753 424.119 242.651 411.771 204.16C402.57 175.479 383.218 154.382 358.095 138.648C316.073 112.331 270.158 105.349 221.794 113.53C186.473 119.504 154.87 133.817 129.716 159.914C101.46 189.231 89.8011 223.81 101.223 263.923C110.057 294.946 130.975 316.9 157.676 333.818C162.263 336.724 167.077 339.274 171.939 342.078C167.441 356.721 162.955 370.982 158.72 385.317C157.409 389.755 156.509 394.36 155.927 398.953C155.406 403.061 157.793 404.564 161.505 403.041C165.179 401.534 168.902 399.909 172.172 397.698C189.965 385.668 207.6 373.405 225.37 361.34C227.02 360.22 229.221 359.396 231.182 359.363C234.653 359.305 238.128 360.071 241.613 360.302C288.063 363.386 330.886 353.268 369.362 324.87Z" fill="#FFEB3B"/>
<path d="M369.072 325.073C330.886 353.268 288.063 363.386 241.613 360.302C238.128 360.071 234.653 359.305 231.182 359.363C229.221 359.396 227.02 360.22 225.37 361.34C207.6 373.405 189.965 385.668 172.172 397.698C168.902 399.909 165.179 401.534 161.505 403.041C157.793 404.564 155.406 403.061 155.927 398.953C156.509 394.36 157.409 389.755 158.72 385.317C162.955 370.982 167.441 356.721 171.939 342.078C167.077 339.274 162.263 336.724 157.676 333.818C130.975 316.9 110.057 294.946 101.223 263.923C89.8011 223.81 101.46 189.231 129.716 159.914C154.87 133.817 186.473 119.504 221.794 113.53C270.158 105.349 316.073 112.331 358.095 138.648C383.218 154.382 402.57 175.479 411.771 204.16C424.119 242.651 414.538 276.753 388.588 306.713C382.846 313.343 375.805 318.847 369.072 325.073ZM350.124 234.541C356.425 228.136 362.724 221.728 369.028 215.326C373.718 210.563 374.083 206.403 370.159 202.311C366.377 198.369 361.657 198.537 357.065 203.035C350.042 209.914 343.156 216.931 336.176 223.853C335.348 224.674 334.295 225.268 332.916 226.285C332.916 219.674 333.19 213.835 332.844 208.033C332.45 201.429 328.683 197.853 323.255 198.192C317.708 198.54 314.437 202.973 314.473 209.399C314.547 222.72 314.348 236.043 314.365 249.364C314.375 256.51 314.143 263.702 314.864 270.788C315.527 277.301 318.732 279.58 324.402 279.124C329.504 278.713 332.784 275.028 332.915 269.252C333.039 263.756 332.746 258.244 333.059 252.763C333.166 250.881 334.55 249.072 335.722 246.378C343.462 256.572 350.322 265.568 357.135 274.6C359.919 278.291 363.358 280.141 367.966 278.521C374.377 276.267 376.307 269.672 372.056 263.909C364.937 254.26 357.613 244.762 350.124 234.541ZM233.742 203.864C225.977 195.327 214.974 196.855 210.967 207.109C204.134 224.592 197.302 242.077 190.687 259.643C189.243 263.479 188.504 267.625 187.83 271.692C187.269 275.08 189.03 277.299 192.283 278.554C198.522 280.963 202.435 279.5 205.234 273.367C206.06 271.559 206.785 269.68 207.304 267.765C208.162 264.595 209.816 263.16 213.353 263.387C218.493 263.718 223.67 263.471 228.831 263.471C237.087 263.471 237.08 263.474 240.214 271.411C240.641 272.49 241.122 273.558 241.686 274.571C244.391 279.432 247.992 280.685 253.506 278.733C258.132 277.096 259.406 274.519 258.327 268.811C258.019 267.181 257.727 265.514 257.135 263.978C249.492 244.143 241.796 224.329 233.742 203.864ZM178.119 216.687C183.059 216.47 188.012 216.414 192.935 215.994C198.049 215.557 200.742 212.788 201.061 208.188C201.431 202.867 199.559 200.009 194.233 198.855C191.02 198.159 187.64 198.002 184.335 198.003C172.018 198.009 159.7 198.318 147.385 198.234C140.617 198.187 136.345 201.047 135.955 206.608C135.533 212.623 139.103 215.869 146.634 216.111C150.731 216.243 154.835 216.134 159.177 216.134C159.41 219.831 159.817 222.98 159.77 226.123C159.583 238.778 159.173 251.431 159.038 264.086C159.004 267.211 159.42 270.407 160.121 273.457C161.08 277.621 164.151 279.244 168.308 279.284C172.632 279.325 176.03 277.837 176.909 273.375C177.674 269.495 177.976 265.469 177.992 261.505C178.05 246.86 177.905 232.213 178.119 216.687ZM284.584 261.203C283.908 259.612 282.661 258.027 282.646 256.43C282.496 240.458 282.633 224.483 282.506 208.511C282.453 201.883 278.721 198.092 272.926 198.179C267.096 198.267 263.831 202.184 263.779 208.821C263.65 225.121 263.363 241.42 263.281 257.72C263.259 262.191 263.525 266.69 264.046 271.13C264.468 274.73 266.554 277.683 270.38 277.778C281.182 278.046 292.004 278.169 302.799 277.797C307.998 277.618 310.759 274.349 310.944 269.988C311.134 265.502 308.732 262.704 303.483 261.571C301.714 261.189 299.86 261.056 298.045 261.054C293.887 261.05 289.729 261.196 284.584 261.203Z" fill="#3F2823"/>
<path d="M350.249 234.871C357.613 244.762 364.937 254.26 372.056 263.909C376.307 269.672 374.377 276.267 367.966 278.521C363.358 280.141 359.919 278.291 357.135 274.6C350.322 265.568 343.462 256.572 335.722 246.378C334.55 249.072 333.166 250.881 333.059 252.763C332.746 258.244 333.039 263.756 332.915 269.252C332.784 275.028 329.504 278.713 324.402 279.124C318.732 279.58 315.527 277.301 314.864 270.788C314.143 263.702 314.375 256.51 314.365 249.364C314.347 236.043 314.547 222.72 314.473 209.399C314.437 202.973 317.708 198.54 323.255 198.192C328.683 197.853 332.45 201.429 332.844 208.033C333.19 213.835 332.916 219.674 332.916 226.285C334.295 225.268 335.348 224.674 336.176 223.853C343.156 216.931 350.042 209.914 357.065 203.035C361.657 198.537 366.377 198.369 370.158 202.311C374.083 206.403 373.718 210.563 369.028 215.326C362.724 221.728 356.425 228.136 350.249 234.871Z" fill="#FDE93B"/>
<path d="M233.928 204.187C241.796 224.329 249.492 244.143 257.135 263.978C257.727 265.514 258.019 267.181 258.327 268.811C259.406 274.519 258.132 277.096 253.506 278.733C247.992 280.685 244.391 279.432 241.686 274.571C241.122 273.558 240.641 272.49 240.214 271.411C237.08 263.474 237.087 263.471 228.831 263.471C223.67 263.471 218.493 263.718 213.353 263.387C209.816 263.16 208.162 264.595 207.304 267.765C206.785 269.68 206.06 271.559 205.234 273.367C202.435 279.5 198.522 280.963 192.283 278.554C189.03 277.299 187.269 275.08 187.83 271.692C188.504 267.625 189.243 263.479 190.687 259.643C197.302 242.077 204.134 224.592 210.967 207.109C214.974 196.855 225.977 195.327 233.928 204.187ZM224.433 247.084C226.86 247.084 229.287 247.084 232.333 247.084C229.277 238.445 226.459 230.477 223.164 221.164C219.841 230.542 216.993 238.579 213.979 247.084C217.535 247.084 220.513 247.084 224.433 247.084Z" fill="#FCE83B"/>
<path d="M177.978 217.127C177.905 232.213 178.05 246.86 177.992 261.505C177.976 265.469 177.674 269.495 176.909 273.375C176.03 277.837 172.632 279.325 168.308 279.284C164.151 279.244 161.08 277.621 160.121 273.457C159.42 270.407 159.004 267.211 159.038 264.086C159.173 251.431 159.583 238.778 159.77 226.123C159.817 222.98 159.41 219.831 159.177 216.134C154.835 216.134 150.731 216.243 146.634 216.111C139.103 215.869 135.533 212.623 135.955 206.608C136.345 201.047 140.617 198.187 147.385 198.234C159.7 198.318 172.018 198.009 184.335 198.003C187.64 198.002 191.02 198.159 194.233 198.855C199.559 200.009 201.431 202.867 201.061 208.188C200.742 212.788 198.049 215.557 192.935 215.994C188.012 216.414 183.059 216.47 177.978 217.127Z" fill="#FDE93B"/>
<path d="M285.077 261.242C289.729 261.196 293.887 261.05 298.045 261.054C299.86 261.056 301.714 261.189 303.483 261.571C308.732 262.704 311.134 265.502 310.944 269.988C310.759 274.349 307.998 277.618 302.799 277.797C292.004 278.169 281.182 278.046 270.38 277.778C266.554 277.683 264.468 274.73 264.046 271.13C263.525 266.69 263.259 262.191 263.281 257.72C263.363 241.42 263.65 225.121 263.779 208.821C263.831 202.184 267.096 198.267 272.926 198.179C278.721 198.091 282.453 201.882 282.506 208.511C282.633 224.483 282.496 240.458 282.646 256.43C282.661 258.027 283.908 259.612 285.077 261.242Z" fill="#FAE63A"/>
<path d="M223.962 247.084C220.513 247.084 217.535 247.084 213.979 247.084C216.993 238.579 219.841 230.542 223.164 221.164C226.459 230.477 229.277 238.445 232.333 247.084C229.287 247.084 226.86 247.084 223.962 247.084Z" fill="#432C24"/>
</g>
<defs>
<clipPath id="clip0_1_11">
<rect width="512" height="512" fill="white"/>
</clipPath>
</defs>
</svg>
